<svg xmlns="http://www.w3.org/2000/svg"
shape-rendering="geometricPrecision"
width="4000" height="4000" viewBox="0 0 677 677">
  <metadata>null</metadata>

<path d="
M 29.99 391.605
C 30.012 390.962 29.922 391.305 30.429 390.633
C 40.115 390.763 49.817 390.43 59.506 390.423
C 70.595 390.416 81.303 390.722 91.745 386.337
C 96.345 384.405 101.053 381.727 104.863 378.489
C 105.983 377.536 107.942 376.38 108.47 374.98
C 107.014 375.465 105.227 375.234 103.709 375.247
C 100.473 375.275 97.237 375.258 94.002 375.279
C 86.836 375.324 79.673 375.412 72.507 375.422
C 68.147 375.427 63.706 375.178 59.366 375.565
C 59.609 368.286 60.046 360.497 59.391 353.246
C 68.989 352.631 78.876 353.281 88.505 353.277
C 96.088 353.273 103.029 353.135 110.182 350.282
C 114.307 348.636 118.469 346.235 121.647 343.093
C 122.589 342.162 124.029 341.02 124.533 339.79
C 116.193 339.675 107.841 339.756 99.499 339.76
C 95.79 339.762 91.697 340.238 88.035 339.738
C 87.802 335.37 88.106 330.956 88.039 326.573
C 87.997 323.77 87.457 320.56 87.973 317.814
C 91.271 318.112 94.686 317.939 97.998 317.901
C 100.333 317.875 102.669 317.853 105.004 317.833
C 112.08 317.774 121.415 318.632 125.531 311.359
C 127.368 308.112 126.036 302.629 126.303 299.014
C 124.909 298.7 123.215 298.987 121.79 299.034
C 119.026 299.125 116.26 299.187 113.495 299.205
C 112.271 299.213 110.762 299.488 109.603 299.088
C 112.291 296.299 114.269 292.589 116.597 289.484
C 121.211 283.331 125.763 277.136 130.321 270.942
C 132.723 267.677 135.031 263.264 138.137 260.65
C 140.518 263.08 142.22 266.173 144.301 268.858
C 149.015 274.942 153.577 281.262 157.976 287.578
C 160.042 290.545 162.231 293.438 164.334 296.379
C 164.963 297.259 166.188 298.341 166.526 299.321
C 161.125 299.49 155.702 299.18 150.296 299.36
C 149.702 303.606 150.17 308.216 150.169 312.503
C 150.166 324.937 151.078 337.964 148.592 350.214
C 142.786 378.814 121.261 402.631 93.075 410.534
C 83.298 413.275 73.077 413.357 63.005 413.392
C 55.172 413.419 47.338 413.39 39.504 413.389
C 37.192 413.389 34.878 413.392 32.566 413.378
C 31.764 413.372 30.778 413.619 30.053 413.278
C 29.627 406.08 30.311 398.816 29.99 391.605 Z"
opacity="1" fill="rgb(37,32,120)" fill-rule="evenodd" />
<path d="
M 188.728 378.723
C 189.651 378.638 190.776 378.382 191.677 378.747
C 193.647 379.544 195.22 383.088 196.441 384.741
C 200.512 390.254 204.575 396.232 209.227 401.262
C 209.854 399.238 209.272 396.148 209.283 394.007
C 209.31 388.915 209.447 383.807 209.32 378.718
C 210.46 378.72 211.561 378.67 212.703 378.736
C 213.519 381.339 212.76 385.246 212.745 387.989
C 212.71 394.435 212.82 400.885 212.743 407.329
C 211.728 407.313 210.708 407.51 209.706 407.284
C 208.259 406.035 207.214 404.051 206.017 402.551
C 202.771 398.485 199.648 394.327 196.448 390.226
C 195.405 388.888 194.382 387.534 193.266 386.254
C 192.904 385.839 192.583 385.044 192.045 385.37
C 192.56 392.648 192.065 400.027 192.251 407.325
C 191.182 407.26 190.1 407.253 189.029 407.245
C 188.233 404.81 188.942 401.076 188.942 398.505
C 188.942 391.938 189.182 385.276 188.728 378.723 Z"
opacity="1" fill="rgb(6,6,6)" fill-rule="evenodd" />
<path d="
M 191.946 278.6
C 192.044 277.975 192.01 278.352 191.972 277.465
C 194.629 276.729 198.243 277.321 201.005 277.347
C 202.075 277.357 203.464 277.076 204.445 277.523
C 212.507 287.854 221.124 297.757 229.108 308.155
C 232.173 312.148 235.347 316.033 238.499 319.957
C 239.775 321.546 240.948 323.771 242.447 325.111
C 242.71 324.135 242.375 323 242.362 321.999
C 242.327 319.501 242.308 317.004 242.329 314.505
C 242.398 306.338 242.416 298.17 242.427 290.002
C 242.432 285.989 241.79 281.126 242.714 277.225
C 247.342 277.598 252.051 276.948 256.671 277.304
C 257.294 294.31 256.666 311.477 256.745 328.504
C 256.766 333.17 256.778 337.836 256.782 342.502
C 256.784 344.666 256.438 347.237 256.826 349.353
C 253.57 349.118 250.261 349.294 246.997 349.255
C 245.933 349.243 244.724 349.515 243.692 349.296
C 234.888 338.704 226.999 327.281 218.3 316.575
C 215.475 313.099 212.81 309.492 209.953 306.043
C 208.972 304.858 208.056 303.629 207.134 302.399
C 206.851 302.022 206.605 301.612 206.345 301.22
C 206.216 301.024 206.107 300.426 205.975 300.62
C 205.682 301.049 205.992 302.94 205.974 303.549
C 205.875 306.865 205.913 310.189 205.913 313.507
C 205.915 325.377 205.617 337.321 206.106 349.177
C 201.506 348.28 196.518 349.786 191.912 349.144
C 192.268 332.616 191.882 316.033 191.863 299.499
C 191.856 292.583 191.456 285.498 191.946 278.6 Z"
opacity="1" fill="rgb(37,29,121)" fill-rule="evenodd" />
<path d="
M 218.48 394.594
C 220.717 383.144 237.716 382.927 239.9 394.486
C 240.147 395.793 240.304 397.089 240.046 398.408
C 239.749 399.934 239.093 401.325 238.222 402.606
C 236.241 405.52 232.679 407.752 229.038 407.564
C 222.69 407.235 217.219 401.053 218.48 394.594 Z
M 221.865 395.077
C 220.544 402.711 230.719 408.53 235.306 401.229
C 235.91 400.267 236.278 399.257 236.477 398.143
C 237.85 390.427 228.056 384.699 223.215 391.859
C 222.58 392.799 222.06 393.951 221.865 395.077 Z"
opacity="1" fill="rgb(5,7,5)" fill-rule="evenodd" />
<path d="
M 254.304 404.06
C 254.682 403.142 255.064 402.57 255.874 401.979
C 258.729 403.41 261.386 405.243 264.817 404.558
C 266.768 404.168 269.019 402.511 267.607 400.303
C 264.818 395.939 255.208 398.666 255.342 391.465
C 255.357 390.659 255.588 389.875 255.979 389.171
C 258.052 385.437 262.875 385.005 266.592 386.154
C 267.669 386.487 271.302 387.771 270.756 389.302
C 270.46 389.928 270.006 390.477 269.415 390.847
C 267.005 389.547 264.724 387.851 261.791 388.502
C 259.794 388.946 257.736 390.784 259.272 392.897
C 262.06 396.733 269.227 394.433 271.203 399.691
C 272.489 403.113 269.723 406.114 266.647 407.041
C 262.267 408.362 257.924 406.747 254.201 404.55
C 254.236 404.387 254.27 404.223 254.304 404.06 Z"
opacity="1" fill="rgb(7,7,5)" fill-rule="evenodd" />
<path d="
M 268.475 319.104
C 269.68 312.713 271.898 306.746 276.63 302.062
C 286.623 292.167 304.749 292.03 314.852 301.74
C 319.208 305.927 321.768 312.311 322.313 318.247
C 322.59 321.267 322.15 324.297 322.314 327.297
C 309.041 327.613 295.746 327.223 282.478 327.557
C 283.212 329.903 284.037 332.088 285.636 334.012
C 289.786 339.005 297.246 339.971 303.186 338.101
C 306.392 337.092 308.442 335.16 311.071 333.248
C 313.017 335.067 314.93 336.847 317.112 338.391
C 317.573 338.717 319.335 339.689 319.389 340.203
C 316.378 344.67 311.095 347.538 306.043 348.942
C 295.939 351.749 284.006 349.842 276.224 342.485
C 270.064 336.663 267.399 327.388 268.475 319.104 Z
M 282.482 316.585
C 282.363 317.095 282.241 317.604 282.128 318.115
C 286.187 318.52 290.422 318.191 294.501 318.197
C 299.256 318.204 304.128 318.499 308.868 318.235
C 309.051 317.13 308.383 315.457 308.04 314.403
C 306.196 308.75 301.464 305.275 295.431 305.7
C 288.62 306.179 284.575 310.428 282.482 316.585 Z"
opacity="1" fill="rgb(35,27,120)" fill-rule="evenodd" />
<path d="
M 273.876 386.318
C 275.089 386.081 276.226 385.968 277.463 385.983
C 277.413 384.054 277.473 382.116 277.418 380.185
C 278.634 379.797 279.877 379.873 281.133 379.744
C 281.334 381.834 281.328 384.099 281.139 386.189
C 283.01 386.112 284.897 385.988 286.766 386.169
C 287.084 386.895 286.931 387.877 286.792 388.647
C 284.887 388.887 282.95 388.727 281.031 388.827
C 280.921 392.239 280.946 395.594 281.108 398.999
C 281.186 400.652 280.805 402.483 281.989 403.811
C 283.576 405.086 285.656 403.403 287.365 403.914
C 287.563 404.555 287.682 405.131 287.65 405.801
C 285.388 408.69 279.683 407.756 278.197 404.562
C 276.011 399.864 278.145 393.676 277.599 388.718
C 276.489 388.905 275.328 388.663 274.219 388.486
C 273.595 387.873 273.784 387.133 273.876 386.318 Z"
opacity="1" fill="rgb(7,7,6)" fill-rule="evenodd" />
<path d="
M 290.433 394.082
C 290.733 392.673 291.326 391.307 292.182 390.147
C 298.954 380.974 313.942 387.719 311.779 398.89
C 309.648 409.895 293.555 410.234 290.534 399.596
C 290.025 397.802 290.046 395.896 290.433 394.082 Z
M 293.516 396.12
C 293.45 397.33 293.612 398.764 294.103 399.881
C 297.401 407.381 308.298 405.038 308.568 396.993
C 308.839 388.912 298.276 385.097 294.411 392.781
C 293.898 393.802 293.579 394.977 293.516 396.12 Z"
opacity="1" fill="rgb(6,7,5)" fill-rule="evenodd" />
<path d="
M 317 387.116
C 316.975 386.465 316.972 386.815 317.026 386.066
C 317.968 385.775 319.543 385.481 320.463 385.862
C 320.444 386.845 320.35 387.822 320.329 388.804
C 320.577 389.214 322.022 387.712 322.387 387.411
C 323.675 386.349 325.417 385.81 327.047 385.611
C 332.794 384.907 337.863 389.353 338.72 394.896
C 339.824 402.039 334.076 408.727 326.649 407.56
C 323.992 407.143 322.649 405.239 320.409 404.151
C 320.514 407.573 320.382 411.311 320.753 414.707
C 319.604 414.762 318.445 414.648 317.3 414.678
C 316.436 412.439 317.206 408.422 317.235 406.004
C 317.311 399.705 317.176 393.404 317 387.116 Z
M 320.496 395.621
C 320.421 397.662 320.679 399.794 321.923 401.481
C 326.425 407.587 335.15 404.345 335.338 396.991
C 335.432 393.35 333.466 389.843 329.904 388.603
C 325.238 386.978 320.666 390.999 320.496 395.621 Z"
opacity="1" fill="rgb(8,9,8)" fill-rule="evenodd" />
<path d="
M 325.395 349.563
C 326.414 347.623 328.131 345.847 329.402 344.049
C 332.97 339 336.722 334.048 340.163 328.91
C 341.339 327.156 342.635 325.486 343.851 323.76
C 344.211 323.248 345.209 322.314 345.211 321.67
C 340.168 315.973 335.922 308.926 331.797 302.532
C 330.496 300.515 327.589 297.774 327.196 295.409
C 332.448 295.379 337.745 295.224 342.994 295.361
C 344.245 297.738 346.009 299.898 347.452 302.167
C 349.606 305.552 351.664 309.063 353.953 312.349
C 357.972 307.105 360.54 300.339 365.078 295.495
C 367.673 295.211 370.396 295.472 373.007 295.472
C 375.462 295.472 378.007 295.228 380.449 295.476
C 379.322 297.746 377.372 299.88 375.889 301.951
C 372.983 306.009 370.172 310.132 367.273 314.193
C 365.606 316.53 363.413 318.992 362.279 321.63
C 366.462 328.879 372.096 335.581 376.848 342.483
C 378.356 344.672 380.828 346.987 381.953 349.331
C 378.028 348.943 373.943 349.259 369.999 349.245
C 368.543 349.24 366.65 349.584 365.259 349.201
C 362.95 345.366 360.194 341.819 357.755 338.067
C 356.522 336.169 355.201 333.258 353.547 331.762
C 351.286 335.815 348.338 339.624 345.728 343.469
C 344.468 345.324 343.413 347.672 341.893 349.305
C 339.853 349.626 337.571 349.296 335.503 349.284
C 332.119 349.265 328.757 349.405 325.395 349.563 Z"
opacity="1" fill="rgb(37,28,123)" fill-rule="evenodd" />
<path d="
M 341.968 403.007
C 342.402 402.506 342.853 402.049 343.44 401.737
C 345.971 403.629 349.01 405.186 352.318 404.521
C 354.257 404.131 356.634 402.634 355.278 400.315
C 354.446 398.892 352.647 398.587 351.192 398.201
C 348.273 397.426 344.186 396.809 343.075 393.528
C 342.039 390.469 344.041 387.212 346.992 386.204
C 350.442 385.026 355.357 385.938 358.235 388.157
C 358.243 389.08 357.726 390.394 356.982 390.963
C 354.056 389.149 349.776 387.003 346.677 389.822
C 345.081 391.738 346.643 393.9 348.68 394.529
C 352.712 395.773 359.83 396.358 358.835 402.302
C 357.521 410.151 345.694 407.682 341.506 404.04
C 341.681 403.292 341.527 403.636 341.968 403.007 Z"
opacity="1" fill="rgb(7,8,6)" fill-rule="evenodd" />
<path d="
M 372.6 386.132
C 373.886 385.919 375.082 385.894 376.38 385.95
C 376.198 383.912 376.371 381.799 376.254 379.739
C 377.495 379.728 378.782 379.617 380.012 379.798
C 379.823 381.78 379.65 384.009 379.966 385.981
C 381.882 385.942 383.774 385.735 385.687 385.979
C 385.889 386.827 386.069 387.826 385.865 388.69
C 383.991 388.572 381.776 388.397 379.921 388.748
C 379.47 392.082 379.771 395.627 379.762 398.991
C 379.758 400.677 379.572 402.468 380.583 403.92
C 382.068 405.021 384.423 403.72 386.093 403.704
C 386.334 404.508 386.425 405.097 386.266 405.933
C 385.848 406.98 384.412 407.231 383.42 407.362
C 380.871 407.697 378.533 407.168 377.113 404.882
C 376.157 403.342 376.399 401.236 376.397 399.502
C 376.395 395.924 376.543 392.336 376.5 388.763
C 375.363 388.583 374.203 388.624 373.06 388.497
C 372.409 387.847 372.513 386.991 372.6 386.132 Z"
opacity="1" fill="rgb(7,7,7)" fill-rule="evenodd" />
<path d="
M 383.834 295.812
C 386.448 295.362 389.235 295.869 391.881 295.804
C 392.298 291.127 392.103 286.047 391.879 281.356
C 392.4 280.717 394.308 281.113 395.134 281.141
C 397.801 281.23 400.495 281.098 403.163 281.051
C 403.98 281.037 405.327 280.774 405.944 281.318
C 405.954 285.772 405.107 291.209 406.189 295.534
C 410.486 295.122 414.981 295.702 419.308 295.628
C 419.696 299.306 419.192 303.108 419.359 306.806
C 416.247 306.715 413.114 306.837 410.001 306.889
C 408.849 306.909 407.254 306.637 406.201 307.134
C 406.189 313.587 406.149 320.047 406.133 326.502
C 406.126 329.314 405.626 333.054 407.088 335.587
C 409.438 339.655 414.392 337.788 417.609 336.217
C 418.156 336.943 418.416 338.283 418.735 339.164
C 419.492 341.255 420.754 343.463 420.918 345.705
C 419.955 347.513 415.961 348.638 414.151 349.131
C 406.726 351.15 398.186 349.943 394.193 342.724
C 392.181 339.085 392.179 335.057 392.173 331.006
C 392.166 326.027 392.233 321.051 392.196 316.072
C 392.178 313.801 392.187 311.522 392.022 309.255
C 391.962 308.427 392.152 307.592 391.714 306.848
C 389.155 306.714 386.582 306.879 384.026 306.703
C 383.841 303.079 383.955 299.439 383.834 295.812 Z"
opacity="1" fill="rgb(36,28,125)" fill-rule="evenodd" />
<path d="
M 388.913 394.072
C 389.268 392.547 389.959 391.066 390.889 389.808
C 397.623 380.694 413.013 387.72 410.43 398.796
C 410.03 400.51 409.313 402.125 408.226 403.519
C 401.157 412.579 386.345 405.078 388.913 394.072 Z
M 392.412 394.064
C 391.347 397.493 392.678 401.324 395.589 403.389
C 399.524 406.18 405.136 404.085 406.648 399.631
C 407.586 396.865 407.128 393.405 405.242 391.126
C 402.466 387.771 396.774 387.378 393.977 390.988
C 393.294 391.869 392.742 393 392.412 394.064 Z"
opacity="1" fill="rgb(5,7,5)" fill-rule="evenodd" />
<path d="
M 424.789 338.576
C 426.58 336.491 428.173 334.059 429.555 331.678
C 430.212 330.547 430.779 328.873 431.809 328.053
C 434.263 329.346 436.369 331.568 438.782 333.043
C 444.289 336.409 451.51 338.58 457.988 337.881
C 463.189 337.32 469.247 333.93 467.472 327.712
C 467.21 326.794 466.738 325.907 466.158 325.15
C 463.328 321.456 457.9 320.36 453.655 319.202
C 443.785 316.51 432.197 313.817 429.191 302.57
C 428.706 300.753 428.463 298.926 428.566 297.043
C 428.72 294.222 429.414 291.458 430.559 288.876
C 436.71 275.015 455.631 275.005 468.037 278.391
C 471.65 279.377 475.114 280.868 478.384 282.692
C 478.879 282.968 481.241 283.974 481.271 284.434
C 479.206 288.231 477.167 292.086 475.424 296.036
C 473.5 295.607 471.655 293.994 469.885 293.122
C 467.468 291.931 464.949 290.943 462.368 290.166
C 458.09 288.878 452.388 287.78 448.108 289.594
C 443.371 291.602 441.661 297.634 445.616 301.427
C 448.521 304.213 453.265 305.24 457.024 306.294
C 466.028 308.82 477.196 311.955 481.063 321.478
C 481.922 323.593 482.37 325.762 482.49 328.038
C 483.195 341.305 471.817 348.866 459.856 350.14
C 450.5 351.136 441.002 348.707 432.774 344.298
C 429.921 342.77 427.514 340.59 424.758 339.013
C 424.768 338.867 424.778 338.722 424.789 338.576 Z"
opacity="1" fill="rgb(10,142,147)" fill-rule="evenodd" />
<path d="
M 425.344 403.001
C 425.651 402.495 426.03 402.118 426.449 401.701
C 427.731 402.017 428.699 403.066 429.862 403.676
C 431.493 404.531 434.009 404.934 435.814 404.539
C 437.887 404.084 440.169 401.848 438.062 399.794
C 435.065 396.871 428.265 398.418 426.456 394.026
C 425.144 390.841 427.114 387.186 430.242 386.117
C 433.801 384.899 438.551 385.618 441.462 388.067
C 441.198 388.976 440.921 389.557 440.228 390.218
C 439.382 390.663 438.454 389.681 437.723 389.281
C 436.348 388.528 434.842 388.254 433.277 388.369
C 430.279 388.589 427.788 391.737 430.868 393.92
C 434.437 396.449 442.098 395.19 442.251 401.255
C 442.271 402.042 442.094 402.72 441.864 403.465
C 440.009 408.428 432.978 407.8 429.019 406.413
C 427.768 405.975 425.746 405.278 425.067 404.092
C 425.19 403.34 425.096 403.704 425.344 403.001 Z"
opacity="1" fill="rgb(6,6,5)" fill-rule="evenodd" />
<path d="
M 446.854 386.574
C 446.911 386.334 446.968 386.094 447.025 385.854
C 448.036 385.824 449.123 385.648 450.096 385.992
C 450.051 389.504 450.035 392.982 450.096 396.5
C 450.126 398.239 450.043 400.247 450.908 401.818
C 453.392 406.333 460.313 404.658 462.045 400.3
C 463.781 395.934 461.57 390.464 462.528 385.963
C 463.667 385.867 464.833 385.744 465.975 385.841
C 465.713 391.032 465.695 396.31 465.893 401.505
C 465.95 402.996 466.764 406.118 465.803 407.354
C 464.873 407.353 463.937 407.381 463.007 407.411
C 462.398 406.74 462.624 404.864 462.608 403.965
C 460.999 405.068 459.577 406.742 457.651 407.29
C 453.333 408.517 448.8 406.672 447.281 402.287
C 446.442 399.863 446.723 397.022 446.747 394.501
C 446.772 391.887 446.536 389.169 446.854 386.574 Z"
opacity="1" fill="rgb(6,5,6)" fill-rule="evenodd" />
<path d="
M 471.409 394.073
C 472.711 388.635 477.753 384.816 483.426 385.467
C 485.361 385.689 487.137 386.649 488.724 387.725
C 489.284 388.104 490.35 388.669 490.397 389.399
C 490.148 390.304 489.136 391.583 488.191 391.828
C 487.135 390.653 486.284 389.592 484.781 388.948
C 476.46 385.386 471.369 397.904 477.615 403.035
C 478.539 403.794 479.644 404.261 480.815 404.483
C 481.994 404.706 483.13 404.651 484.275 404.301
C 485.761 403.847 486.959 402.724 488.055 401.664
C 488.848 401.696 490.362 402.748 490.717 403.46
C 490.235 404.45 488.799 405.246 487.889 405.798
C 485.09 407.498 482.01 408.142 478.836 407.074
C 473.461 405.267 470.1 399.648 471.409 394.073 Z"
opacity="1" fill="rgb(8,8,7)" fill-rule="evenodd" />
<path d="
M 486.734 295.822
C 489.451 295.817 492.172 295.765 494.89 295.824
C 495.44 291.276 495.095 286.007 494.902 281.419
C 495.643 280.733 497.501 281.155 498.502 281.149
C 501.815 281.128 505.128 281.021 508.439 280.986
C 508.168 285.892 508.955 290.884 508.567 295.811
C 513.039 295.464 517.738 295.606 522.225 295.701
C 521.951 297.893 522.197 300.291 522.217 302.506
C 522.229 303.842 522.007 305.445 522.284 306.744
C 517.984 306.442 513.157 306.558 508.866 306.975
C 508.449 313.919 508.729 320.962 508.769 327.916
C 508.783 330.47 508.295 334.203 509.875 336.392
C 512.389 339.875 516.912 337.868 519.904 336.37
C 520.93 339.461 522.745 342.724 523.232 345.952
C 523.109 346.32 522.299 346.658 521.969 346.882
C 520.256 348.043 518.494 348.876 516.469 349.336
C 509.634 350.888 501.19 349.992 497.368 343.364
C 495.088 339.408 495.078 334.93 495.085 330.498
C 495.093 325.833 495.1 321.167 495.097 316.502
C 495.095 314.355 495.061 312.206 495.096 310.059
C 495.109 309.237 495.429 307.787 494.994 307.055
C 492.401 306.634 489.484 306.804 486.866 306.988
C 486.03 303.637 486.823 299.292 486.734 295.822 Z"
opacity="1" fill="rgb(9,141,146)" fill-rule="evenodd" />
<path d="
M 493.444 395.09
C 494.494 389.764 499.033 385.08 504.801 385.49
C 507.21 385.661 509.173 386.457 511.189 387.771
C 511.611 388.046 513.009 388.811 512.859 389.319
C 512.296 390.162 511.528 391.038 510.567 391.421
C 509.442 390.302 508.344 389.289 506.809 388.761
C 496.934 385.371 492.772 401.873 502.821 404.409
C 504.022 404.712 505.186 404.614 506.369 404.293
C 508.004 403.85 509.237 402.715 510.562 401.716
C 511.292 401.743 513.03 403.017 512.893 403.85
C 512.261 404.883 510.566 405.677 509.535 406.258
C 502.011 410.497 492.047 403.72 493.444 395.09 Z"
opacity="1" fill="rgb(8,8,6)" fill-rule="evenodd" />
<path d="
M 515.963 394.085
C 517.777 386.282 527.878 382.341 533.671 388.572
C 535.373 390.403 536.279 393.139 536.606 395.574
C 536.679 396.116 536.975 397.513 536.508 397.898
C 531.194 397.769 525.307 397.202 520.054 397.989
C 517.993 399.861 521.985 403.327 523.746 404.017
C 525.882 404.854 528.393 405.015 530.425 403.825
C 531.355 403.28 532.079 402.373 533.059 401.946
C 533.89 401.999 535.472 402.905 535.365 403.882
C 534.214 406.071 529.815 407.281 527.562 407.436
C 520.198 407.943 514.169 401.437 515.963 394.085 Z
M 518.937 395.231
C 518.917 395.341 518.897 395.452 518.878 395.562
C 522.582 395.389 526.292 395.356 530.008 395.33
C 530.696 395.325 533.273 395.642 533.569 395.058
C 532.805 393.111 532.223 391.132 530.491 389.776
C 525.606 385.951 520.157 390.085 518.937 395.231 Z"
opacity="1" fill="rgb(5,7,5)" fill-rule="evenodd" />
<path d="
M 526.998 322.616
C 527.729 315.507 529.292 308.983 534.209 303.483
C 543.883 292.662 563.749 291.58 573.627 302.649
C 579.762 309.525 581.003 318.331 580.578 327.192
C 577.633 326.882 574.465 327.24 571.5 327.263
C 565.834 327.306 560.166 327.252 554.499 327.247
C 551.499 327.244 548.499 327.246 545.5 327.275
C 543.987 327.289 542.365 327.117 540.909 327.573
C 541.938 330.816 543.268 333.585 546.016 335.768
C 552.931 341.263 563.894 339.478 569.943 333.623
C 571.789 334.43 573.398 336.699 574.967 338.006
C 575.814 338.712 577.176 339.507 577.743 340.435
C 576.07 343.048 572.627 345.221 569.977 346.71
C 558.391 353.222 542.329 350.307 533.363 340.69
C 528.771 335.763 527.284 329.117 526.998 322.616 Z
M 540.929 317.077
C 540.826 317.591 540.648 317.878 540.926 318.345
C 547.288 317.667 554.094 318.344 560.503 318.335
C 562.184 318.333 563.884 318.268 565.563 318.357
C 566.096 318.385 566.98 318.706 567.474 318.503
C 567.661 309.572 558.284 303.671 550.217 306.362
C 545.065 308.08 542.386 312.083 540.929 317.077 Z"
opacity="1" fill="rgb(10,141,146)" fill-rule="evenodd" />
<path d="
M 539.395 403.021
C 539.956 402.305 540.38 401.922 541.303 401.839
C 543.746 403.756 546.755 405.164 549.962 404.567
C 552.237 404.144 554.011 402.105 552.596 399.884
C 549.225 396.85 543.418 398.322 540.927 393.829
C 539.243 390.792 541.594 387.001 544.669 386.037
C 548.522 384.828 552.647 386.048 555.997 388.056
C 556.018 389.051 555.4 390.068 554.491 390.484
C 552.931 390.17 551.765 388.876 550.061 388.628
C 547.786 388.296 541.17 389.687 544.59 393.12
C 547.883 396.425 558.089 395.187 556.637 402.418
C 555.507 408.051 547.55 407.905 543.414 406.549
C 541.852 406.036 539.8 405.223 539.158 403.582
C 539.237 403.395 539.316 403.208 539.395 403.021 Z"
opacity="1" fill="rgb(6,6,5)" fill-rule="evenodd" />
<path d="
M 559.455 403.01
C 561.28 401.249 562.441 402.804 564.22 403.684
C 566.397 404.761 571.044 405.619 572.633 403.125
C 573.981 401.012 572.373 399.292 570.399 398.546
C 566.757 397.17 560.171 396.906 560.469 391.486
C 560.779 385.839 567.699 385.017 571.982 386.265
C 573.044 386.575 575.655 387.2 576.113 388.298
C 575.937 389.185 575.433 390.355 574.589 390.822
C 572.064 389.25 569.535 387.898 566.482 388.81
C 564.783 389.317 563.054 390.909 564.274 392.772
C 565.051 393.958 566.481 394.355 567.75 394.759
C 571.43 395.931 577.91 397.129 576.579 402.525
C 575.191 408.152 567.812 407.917 563.426 406.513
C 561.904 406.027 559.552 405.199 559.128 403.497
C 559.237 403.335 559.346 403.173 559.455 403.01 Z"
opacity="1" fill="rgb(6,6,4)" fill-rule="evenodd" />
<path d="
M 589.981 305.119
C 590.367 302.057 589.54 298.728 590.218 295.727
C 594.508 295.906 599.007 295.923 603.297 295.648
C 603.071 297.873 603.004 300.853 603.425 303.045
C 604.199 302.802 604.644 301.804 605.195 301.223
C 606.178 300.185 607.269 299.252 608.434 298.424
C 612.578 295.478 618.072 294.415 623.068 294.816
C 625.685 295.026 628.243 295.718 630.661 296.726
C 651.457 305.392 651.639 340.048 630.436 348.34
C 627.607 349.446 624.696 349.932 621.664 349.931
C 618.529 349.93 615.339 349.389 612.438 348.183
C 608.625 346.598 606.177 343.942 603.565 340.879
C 604.404 349.303 603.526 357.913 603.804 366.373
C 599.363 366.088 594.544 365.961 590.114 366.404
C 589.597 364.648 590.055 362.476 590.055 360.654
C 590.056 356.193 590.061 351.732 590.052 347.271
C 590.022 333.266 589.407 319.116 589.981 305.119 Z
M 603.505 320.617
C 603.063 326.779 605.527 333.282 611.096 336.475
C 616.369 339.499 623.752 338.674 627.995 334.203
C 630.566 331.492 631.891 327.707 632.167 324.033
C 632.655 317.549 629.75 310.476 623.742 307.447
C 614.091 302.583 604.206 310.858 603.505 320.617 Z"
opacity="1" fill="rgb(12,145,150)" fill-rule="evenodd" />

</svg>